<?xml version="1.0" encoding="UTF-8"?>
<svg version="1.1" xmlns="http://www.w3.org/2000/svg" width="320" height="320">
<path d="M0 0 C0.83664185 -0.00894287 1.67328369 -0.01788574 2.53527832 -0.02709961 C41.43786964 -0.305643 76.21857568 16.26887549 103.75 43.1875 C127.13925625 66.68778622 143.53915524 100.50230924 144.0234375 133.96875 C144.03605621 134.76246506 144.04867493 135.55618011 144.06167603 136.37394714 C144.52721238 172.71435282 137.24062873 205.78185567 113.75 234.5625 C113.05318115 235.41956543 113.05318115 235.41956543 112.34228516 236.29394531 C93.97803892 258.73846151 68.90960429 276.85048905 40.5 284.125 C39.32630859 284.43727539 39.32630859 284.43727539 38.12890625 284.75585938 C35.67651981 285.39395993 33.21797025 285.9877243 30.75 286.5625 C29.96262451 286.75086426 29.17524902 286.93922852 28.36401367 287.13330078 C20.02077583 288.90055979 11.61999769 289.05300805 3.12426758 289.25048828 C0.55682351 289.31263741 -2.00938298 289.39579824 -4.57617188 289.48046875 C-6.23173751 289.52470283 -7.88733637 289.56771398 -9.54296875 289.609375 C-10.29837448 289.63529724 -11.05378021 289.66121948 -11.83207703 289.68792725 C-16.98851262 289.78552607 -21.28557352 288.96562135 -26.25 287.5625 C-27.85169595 287.3166583 -29.45581115 287.08575816 -31.0625 286.875 C-39.07378535 285.47638175 -46.57246757 282.31503284 -54.12402344 279.38476562 C-55.88161466 278.70498069 -57.64690128 278.04512915 -59.4140625 277.390625 C-64.16981084 275.59433615 -68.33927517 273.4584585 -72.55859375 270.61328125 C-74.38284674 269.38932226 -74.38284674 269.38932226 -77.25 268.5625 C-77.25 267.9025 -77.25 267.2425 -77.25 266.5625 C-78.33087891 266.19125 -78.33087891 266.19125 -79.43359375 265.8125 C-82.54069883 264.43347971 -84.71516099 262.74635228 -87.3125 260.5625 C-90.63060127 257.74467521 -90.63060127 257.74467521 -94.3515625 255.54296875 C-96.68668827 254.33696758 -97.89638914 252.89898671 -99.5625 250.875 C-101.79057947 248.18296209 -104.11428996 245.69542626 -106.61328125 243.2578125 C-123.04526882 226.94781768 -133.37469523 205.78625125 -140 183.875 C-140.29825684 182.89672241 -140.29825684 182.89672241 -140.60253906 181.89868164 C-144.12617106 169.68835994 -144.65553563 157.67695518 -144.625 145.0625 C-144.62445618 144.21934235 -144.62391235 143.37618469 -144.62335205 142.50747681 C-144.585684 129.81530138 -144.00695127 117.77402121 -140.25 105.5625 C-140.03569336 104.83949707 -139.82138672 104.11649414 -139.60058594 103.37158203 C-128.45513236 66.63376598 -103.15025997 35.3172563 -69.56713867 16.77319336 C-47.19452534 4.93075522 -25.16966473 0.1329815 0 0 Z " fill="#DFB305" transform="translate(160.25,15.4375)"/>
<path d="M0 0 C0.67187347 0.00337372 1.34374695 0.00674744 2.03598022 0.01022339 C20.40102161 0.14310845 36.01874509 4.0482898 52.75 11.4375 C53.71510498 11.86119873 53.71510498 11.86119873 54.69970703 12.29345703 C63.61119652 16.28183226 71.2061572 21.27397914 78.75 27.4375 C79.32282715 27.89817871 79.8956543 28.35885742 80.48583984 28.83349609 C102.45954968 46.57989401 116.83094094 70.18315759 123.75 97.4375 C123.98460937 98.34628906 124.21921875 99.25507813 124.4609375 100.19140625 C131.87434966 131.08062358 124.6876933 165.33921248 108.75 192.4375 C95.15048731 214.41445224 76.04689377 230.73793546 52.8125 241.875 C51.74769409 242.38861084 51.74769409 242.38861084 50.66137695 242.91259766 C46.69140413 244.75645348 43.15057964 245.94854671 38.75 246.4375 C35.11006865 232.79775726 40.17115419 222.52871312 46.27978516 210.56396484 C46.90839151 209.3319678 47.53648706 208.09971 48.1640625 206.8671875 C48.47211823 206.2631308 48.78017395 205.6590741 49.0975647 205.03671265 C57.46053073 188.23576015 59.8830456 173.1050884 54.75 155 C52.18481002 145.80021155 50.62801008 138.03674706 51.75 128.4375 C51.81380859 127.75494141 51.87761719 127.07238281 51.94335938 126.36914062 C53.15873853 114.8490083 57.14506106 108.570109 66.0703125 101.30859375 C67.29609957 100.35056952 68.52262738 99.39349207 69.75 98.4375 C70.79283887 97.5787844 71.83216255 96.71577419 72.8671875 95.84765625 C79.81828966 90.06148949 79.81828966 90.06148949 82.87890625 88.01171875 C88.14761534 84.28292464 89.09650562 80.07079822 90.26171875 73.8515625 C90.94766578 69.05542085 91.46889541 64.27443756 91.75 59.4375 C86.19010203 57.58420068 81.01022399 58.33546591 75.375 59.4375 C55.04926164 62.89829916 55.04926164 62.89829916 47.80859375 58.75390625 C45.5 56.625 45.5 56.625 43.671875 54.48046875 C37.47861262 47.89698049 28.83154441 48.70872583 20.42773438 48.265625 C19.38810547 48.19859375 18.34847656 48.1315625 17.27734375 48.0625 C16.33624756 48.01351562 15.39515137 47.96453125 14.42553711 47.9140625 C11.27151352 47.35227273 9.33736909 46.30854167 6.75 44.4375 C4.98265354 41.78648031 4.2481552 40.09886389 3.375 37.125 C2.06354325 33.05153585 0.36254521 29.86646558 -2.25 26.4375 C-2.70375 25.798125 -3.1575 25.15875 -3.625 24.5 C-4.16125 24.149375 -4.6975 23.79875 -5.25 23.4375 C-6.178125 23.685 -7.10625 23.9325 -8.0625 24.1875 C-9.6403125 24.31125 -9.6403125 24.31125 -11.25 24.4375 C-13.03650253 22.80538658 -14.36463994 21.07719139 -15.7578125 19.1015625 C-17.54039362 17.1136579 -18.60173905 16.63957614 -21.25 16.4375 C-24.10409621 19.29159621 -23.63427266 22.19092592 -23.7421875 26.0234375 C-23.80526629 27.59996071 -23.86901295 29.17645731 -23.93334961 30.75292969 C-23.96411591 31.5793396 -23.9948822 32.40574951 -24.02658081 33.25720215 C-24.48490091 45.15675511 -24.9897476 56.79663811 -27.71166992 68.42724609 C-29.2545412 75.05272882 -30.15095864 81.68208853 -30.9375 88.4375 C-31.11623657 89.96068848 -31.11623657 89.96068848 -31.29858398 91.51464844 C-32.68266748 103.73455677 -33.44982621 115.89507906 -33.8125 128.1875 C-33.85583558 129.57813389 -33.89945378 130.96875899 -33.94335938 132.359375 C-34.04833749 135.71867477 -34.15049583 139.07803439 -34.25 142.4375 C-35.30316406 142.67984375 -36.35632813 142.9221875 -37.44140625 143.171875 C-38.89856975 143.50984699 -40.35558991 143.84843729 -41.8125 144.1875 C-42.58899902 144.36796875 -43.36549805 144.5484375 -44.16552734 144.734375 C-48.93899402 145.85639777 -53.65715267 147.09714202 -58.375 148.4375 C-81.78681514 154.71385895 -102.71054246 156.37921911 -126.25 150.4375 C-126.31513487 142.43693377 -126.31734057 134.43807827 -126.25 126.4375 C-126.24419922 125.66116211 -126.23839844 124.88482422 -126.23242188 124.08496094 C-125.74017299 89.97211351 -110.31904524 58.12333212 -86.25 34.4375 C-62.60840347 12.56259887 -32.34255231 -0.25887087 0 0 Z " fill="#EFEFEE" transform="translate(159.25,33.5625)"/>
<path d="M0 0 C1.32 0 2.64 0 4 0 C12.80392776 24.21080135 6.54190227 41.35615266 -3.90869141 63.77587891 C-4.84574024 65.68561378 -5.88809227 67.54303808 -6.94921875 69.38671875 C-12.28816069 78.90720962 -11.2256602 87.86516668 -10.2421875 98.38720703 C-10.021645 100.76648709 -9.84212495 103.14300551 -9.6875 105.52734375 C-9.48217449 108.68743165 -9.25316881 111.8434697 -9 115 C-21.08693805 119.47664372 -32.8533245 120.39109819 -45.62573242 120.68798828 C-48.19317649 120.75013741 -50.75938298 120.83329824 -53.32617188 120.91796875 C-54.98173751 120.96220283 -56.63733637 121.00521398 -58.29296875 121.046875 C-59.04837448 121.07279724 -59.80378021 121.09871948 -60.58207703 121.12542725 C-65.73851262 121.22302607 -70.03557352 120.40312135 -75 119 C-76.60169595 118.7541583 -78.20581115 118.52325816 -79.8125 118.3125 C-87.8290983 116.91295421 -95.32727984 113.74720706 -102.8828125 110.81347656 C-104.61025296 110.14975059 -106.35040064 109.51917553 -108.09375 108.8984375 C-114.45770424 106.58244149 -119.61564278 103.07836419 -125 99 C-113.92189615 76.20671285 -101.68534579 53.93410058 -89 32 C-88.4932373 31.10418213 -87.98647461 30.20836426 -87.46435547 29.28540039 C-80.36549333 16.99249615 -69.55117286 10.85268017 -56.1875 6.8125 C-41.2047388 2.84270857 -26.42751274 2.44361989 -11 2 C-12.79753976 5.85429556 -15.14804456 8.51345189 -18.0625 11.625 C-21.41533647 15.04209753 -21.41533647 15.04209753 -24 19 C-17.07 19.495 -17.07 19.495 -10 20 C-11.22076387 26.50500933 -12.71065273 32.75116395 -14.6875 39.0625 C-21.67058468 61.88080045 -27.74532218 84.97364597 -34 108 C-31.55331724 104.31851757 -29.11933773 100.6288019 -26.6875 96.9375 C-25.99720703 95.89916016 -25.30691406 94.86082031 -24.59570312 93.79101562 C-23.92861328 92.77587891 -23.26152344 91.76074219 -22.57421875 90.71484375 C-21.96151123 89.78792725 -21.34880371 88.86101074 -20.7175293 87.90600586 C-18.82041465 84.6961472 -17.42337191 81.44489142 -16 78 C-14.87508251 75.53758746 -13.74288173 73.07973632 -12.6015625 70.625 C-11.95009292 69.21243686 -11.29906591 67.79966954 -10.6484375 66.38671875 C-9.64327913 64.20465907 -8.63605222 62.02371173 -7.62109375 59.84619141 C0.81988388 41.71877816 7.57114883 26.05392051 1 6 C0.505 5.505 0.505 5.505 0 5 C-0.04063832 3.33382885 -0.042721 1.66611905 0 0 Z " fill="#1D1C1C" transform="translate(209,184)"/>
<path d="M0 0 C3.60400334 1.02971524 5.30799523 2.20757612 7.4375 5.1875 C8.283125 6.115625 9.12875 7.04375 10 8 C10.94875 7.79375 11.8975 7.5875 12.875 7.375 C14.421875 7.189375 14.421875 7.189375 16 7 C21.80526273 11.69124643 25.42846082 18.00427221 26.875 25.25 C27.54765691 29.09497061 27.54765691 29.09497061 30.23364258 30.20800781 C33.04828296 31.01382313 35.46566084 31.3098133 38.38671875 31.421875 C39.40830078 31.47859375 40.42988281 31.5353125 41.48242188 31.59375 C43.59894638 31.69693218 45.71622535 31.78575954 47.83398438 31.859375 C56.82559683 32.40056296 63.4576636 35.10503283 69.58984375 41.84765625 C73.10230261 44.98439017 76.01327276 44.63947616 80.5625 44.4375 C81.75915283 44.41139648 81.75915283 44.41139648 82.97998047 44.38476562 C88.56536612 44.20913165 93.95380247 43.51867913 99.44140625 42.453125 C104.47511732 41.56165861 108.60886816 41.07257877 113 44 C113.67984295 47.65915472 113.28903146 51.30581666 113 55 C112.9071875 56.58167969 112.9071875 56.58167969 112.8125 58.1953125 C111.536998 67.64769342 106.88380914 71.61571175 99.71484375 77.14453125 C99.08819824 77.61971191 98.46155273 78.09489258 97.81591797 78.58447266 C94.14192023 81.44839291 90.80390915 84.68047408 87.40625 87.86328125 C85 90 85 90 82.90625 91.35546875 C77.23246294 95.06987596 76.49900547 100.35383931 75.15258789 106.64477539 C74.48006049 110.06059793 73.95276136 113.41924297 73.5625 116.8828125 C73 120 73 120 70.375 122.4375 C64.60845027 125.10719895 59.46720532 124.04142401 53.47265625 122.52734375 C46.06088391 120.86515561 39.01462755 120.50247038 31.4375 120.5625 C30.14062256 120.56644775 28.84374512 120.57039551 27.50756836 120.57446289 C17.13134114 120.72762936 7.30633567 122.01516166 -2.75366211 124.51928711 C-5.81475665 125.17435668 -8.89917598 125.57914882 -12 126 C-12.70474331 76.15838469 -12.70474331 76.15838469 -7.4597168 53.05371094 C-7.28738525 52.29348633 -7.11505371 51.53326172 -6.9375 50.75 C-6.76452393 49.99879883 -6.59154785 49.24759766 -6.41333008 48.47363281 C-4.1746113 37.63896687 -4.12869369 26.42968581 -3.77124023 15.40332031 C-3.74054443 14.60867874 -3.70984863 13.81403717 -3.67822266 12.99531555 C-3.62057503 11.48743006 -3.57484358 9.97902787 -3.54272461 8.47038269 C-3.34150263 3.4400203 -3.34150263 3.4400203 -1.46313477 1.01977539 C-0.73888306 0.51498657 -0.73888306 0.51498657 0 0 Z " fill="#1C1C1C" transform="translate(138,49)"/>
<path d="M0 0 C-1.60545817 5.88023234 -4.58389371 10.77437324 -7.625 16 C-11.64949305 22.98723929 -15.5686384 30.00767937 -19.3125 37.1484375 C-19.67201752 37.83238586 -20.03153503 38.51633423 -20.40194702 39.2210083 C-21.83414416 41.94846135 -23.26483006 44.67644298 -24.67657471 47.41455078 C-25.66432743 49.33017822 -26.66325309 51.2396079 -27.6640625 53.1484375 C-28.23592285 54.25364746 -28.8077832 55.35885742 -29.39697266 56.49755859 C-31 59 -31 59 -34 60 C-36.61148465 58.68064043 -38.98377006 57.32210406 -41.4375 55.75 C-42.14962646 55.29834473 -42.86175293 54.84668945 -43.59545898 54.38134766 C-54.06385588 47.55418331 -65.4628285 38.39668233 -71 27 C-70.31711914 26.88519287 -69.63423828 26.77038574 -68.93066406 26.65209961 C-45.00416045 22.55012701 -22.63343986 17.21763356 -3.671875 1.25 C-2 0 -2 0 0 0 Z " fill="#EEEDEB" transform="translate(123,210)"/>
<path d="M0 0 C1.20076172 0.06960937 1.20076172 0.06960937 2.42578125 0.140625 C3.23402344 0.17671875 4.04226562 0.2128125 4.875 0.25 C5.79732422 0.31960937 5.79732422 0.31960937 6.73828125 0.390625 C12.31442536 10.61355586 14.58076105 20.99138749 12.0390625 32.578125 C8.69856896 43.50613361 3.55063654 53.751712 -1.32421875 64.05859375 C-3.28950326 68.22338424 -5.10943329 72.41300029 -6.83203125 76.68359375 C-8.8606035 81.61862596 -11.2204949 86.05646831 -14.13671875 90.515625 C-14.56581543 91.18722656 -14.99491211 91.85882813 -15.43701172 92.55078125 C-18.89858125 97.93228883 -22.50247087 103.21232328 -26.26171875 108.390625 C-27.59259498 105.72887255 -26.99027873 104.74359185 -26.18530273 101.90698242 C-25.92430283 100.97387741 -25.66330292 100.0407724 -25.39439392 99.07939148 C-25.10182205 98.06190323 -24.80925018 97.04441498 -24.5078125 95.99609375 C-24.20988297 94.93892654 -23.91195343 93.88175934 -23.60499573 92.79255676 C-22.64314632 89.38579642 -21.6713012 85.98197794 -20.69921875 82.578125 C-20.07031004 80.35630467 -19.44204764 78.13430128 -18.81445312 75.91210938 C-17.26974978 70.44948259 -15.71565896 64.98958629 -14.1574707 59.53079224 C-13.28907759 56.48653474 -12.42345336 53.44150322 -11.55859375 50.39624023 C-11.03132123 48.54278572 -10.5039812 46.68935042 -9.9765625 44.8359375 C-9.74319687 44.01340988 -9.50983124 43.19088226 -9.26939392 42.34342957 C-7.07501103 34.64790536 -4.69814249 27.01253465 -2.26171875 19.390625 C-3.52628906 19.40802734 -3.52628906 19.40802734 -4.81640625 19.42578125 C-5.91210938 19.43480469 -7.0078125 19.44382813 -8.13671875 19.453125 C-9.77253906 19.47052734 -9.77253906 19.47052734 -11.44140625 19.48828125 C-14.26171875 19.390625 -14.26171875 19.390625 -16.26171875 18.390625 C-14.71076294 14.76893359 -12.49306823 12.26544481 -9.82421875 9.390625 C-6.57988244 5.91212787 -6.57988244 5.91212787 -3.76953125 2.09375 C-2.26171875 0.390625 -2.26171875 0.390625 0 0 Z " fill="#E7E7E6" transform="translate(201.26171875,184.609375)"/>
</svg>
